<?xml version="1.0" encoding="utf-8"?>
<!-- Generator: Adobe Illustrator 25.2.3, SVG Export Plug-In . SVG Version: 6.00 Build 0)  -->
<svg version="1.1" id="Layer_1" xmlns="http://www.w3.org/2000/svg" xmlns:xlink="http://www.w3.org/1999/xlink" x="0px" y="0px"
	 viewBox="0 0 510.2 311.2" style="enable-background:new 0 0 510.2 311.2;" xml:space="preserve">
<style type="text/css">
	.st0{font-family:'Arial-BoldMT';}
	.st1{font-size:8px;}
	.st2{fill:none;stroke:#BE2026;stroke-miterlimit:10;}
	.st3{fill:#BE2026;}
	.st4{fill:#FFFFFF;stroke:#BE2026;stroke-miterlimit:10;}
	.st5{font-size:6px;}
	.st6{letter-spacing:33;}
	.st7{fill:#D3E2BA;stroke:#000000;stroke-width:0.5;stroke-miterlimit:10;}
	.st8{fill:#EAD6D8;stroke:#000000;stroke-width:0.5;stroke-miterlimit:10;}
	.st9{clip-path:url(#SVGID_2_);}
	.st10{fill:none;stroke:#BCBEC0;stroke-miterlimit:10;}
	.st11{fill:none;stroke:#BE2026;stroke-width:3;stroke-miterlimit:10;}
	.st12{fill:none;stroke:#6D6E71;stroke-miterlimit:10;}
	.st13{fill:#6D6E71;}
	.st14{fill:none;stroke:#6D6E71;stroke-width:2;stroke-miterlimit:10;}
	.st15{fill:#FFFFFF;stroke:#000000;stroke-miterlimit:10;}
	.st16{fill:none;stroke:#BE2026;stroke-width:2;stroke-miterlimit:10;}
	.st17{font-size:10px;}
	.st18{fill:none;stroke:#000000;stroke-miterlimit:10;}
	.st19{fill:none;stroke:#000000;stroke-miterlimit:10;stroke-dasharray:1.9933,1.9933;}
	.st20{fill:none;stroke:#000000;stroke-miterlimit:10;stroke-dasharray:2;}
</style>
<text transform="matrix(1 0 0 1 131.2224 23.2973)" class="st0 st1">2. Link peaks to genes</text>
<text transform="matrix(1 0 0 1 241.6367 23.2972)" class="st0 st1">3. Determine TF occupancy</text>
<g>
	<g>
		<path class="st2" d="M158,73c0-5.5,6.4-10,14.2-10c6.4,0,11.8,3,13.6,7"/>
		<g>
			<path class="st3" d="M186.5,73c-0.8-1.3-2.1-2.8-3.3-3.6l2.5,0.3l2.1-1.4C187.1,69.6,186.7,71.5,186.5,73z"/>
		</g>
	</g>
</g>
<line class="st2" x1="126.5" y1="74.5" x2="199" y2="74.5"/>
<rect x="148" y="69" class="st4" width="20" height="10"/>
<text transform="matrix(1 0 0 1 152.5107 75.4648)" class="st0 st5">RE</text>
<line class="st2" x1="189.5" y1="75" x2="189.5" y2="55"/>
<g>
	<g>
		<line class="st2" x1="189.5" y1="55.5" x2="196.5" y2="55.5"/>
		<g>
			<path class="st3" d="M199.5,55.5c-1.4,0.5-3.2,1.4-4.3,2.4l0.9-2.4l-0.9-2.4C196.3,54.1,198.1,55,199.5,55.5z"/>
		</g>
	</g>
</g>
<g>
	<g>
		<path class="st2" d="M280,73.8c0-5.5,6.4-10,14.2-10c6.4,0,11.8,3,13.6,7"/>
		<g>
			<path class="st3" d="M308.5,73.8c-0.8-1.3-2.1-2.8-3.3-3.6l2.5,0.3l2.1-1.4C309.1,70.4,308.6,72.3,308.5,73.8z"/>
		</g>
	</g>
</g>
<line class="st2" x1="248.5" y1="75.3" x2="321" y2="75.3"/>
<rect x="270" y="69.8" class="st4" width="20" height="10"/>
<text transform="matrix(1 0 0 1 274.471 76.2769)" class="st0 st5">RE</text>
<line class="st2" x1="311.5" y1="75.8" x2="311.5" y2="55.8"/>
<g>
	<g>
		<line class="st2" x1="311.5" y1="56.3" x2="318.4" y2="56.3"/>
		<g>
			<path class="st3" d="M321.5,56.3c-1.4,0.5-3.2,1.4-4.3,2.4l0.9-2.4l-0.9-2.4C318.3,54.9,320,55.8,321.5,56.3z"/>
		</g>
	</g>
</g>
<text transform="matrix(1 0 0 1 203.2861 56.2861)" class="st0 st5">TG</text>
<text transform="matrix(1 0 0 1 323.2423 57.5676)" class="st0 st5">TG</text>
<path class="st4" d="M280,40.5L280,40.5c-4.7,0-8.5,3.8-8.5,8.5v5c0,4.7,3.8,8.5,8.5,8.5l0,0c4.7,0,8.5-3.8,8.5-8.5v-5
	C288.5,44.3,284.7,40.5,280,40.5z"/>
<text transform="matrix(0.9865 0 0 1 275.29 54.1726)" class="st0 st5">TF</text>
<text transform="matrix(1 0 0 1 360.5427 23.2972)" class="st0 st1">4. Prune network by co-occurrence</text>
<text transform="matrix(1 0 0 1 360.5427 32.8972)" class="st0 st1 st6"> </text>
<text transform="matrix(1 0 0 1 396.5427 32.8972)" class="st0 st1">(optional) </text>
<ellipse class="st7" cx="381" cy="69" rx="20.5" ry="16.5"/>
<ellipse class="st8" cx="433" cy="69" rx="20.5" ry="16.5"/>
<text transform="matrix(1 0 0 1 369.2393 69.4157)" class="st0 st5">TF, RE &amp; </text>
<text transform="matrix(1 0 0 1 369.2393 76.6157)" class="st0 st5">TG</text>
<text transform="matrix(1 0 0 1 424.6209 69.4157)" class="st0 st5">TF, RE </text>
<ellipse class="st8" cx="474" cy="69" rx="20.5" ry="16.5"/>
<text transform="matrix(1 0 0 1 467.3555 69.4157)" class="st0 st5">TG</text>
<text transform="matrix(1 0 0 1 357.6209 47.9443)" class="st0 st5">likely regulation</text>
<text transform="matrix(1 0 0 1 426.5147 47.9443)" class="st0 st5">unlikely regulation</text>
<g>
	<g>
		<defs>
			<rect id="SVGID_1_" x="18" y="30" width="90" height="74"/>
		</defs>
		<clipPath id="SVGID_2_">
			<use xlink:href="#SVGID_1_"  style="overflow:visible;"/>
		</clipPath>
		<g id="CSZOxq_3_" class="st9">
			
				<image style="overflow:visible;enable-background:new    ;" width="4812" height="2512" id="CSZOxq_4_" xlink:href="50726BD09876E499.jpeg"  transform="matrix(0.1413 0 0 0.1413 -2.1862 -18.5147)">
			</image>
		</g>
	</g>
</g>
<rect x="9" y="11" class="st10" width="110.8" height="93"/>
<rect x="122.8" y="11" class="st10" width="110.9" height="93"/>
<rect x="237.1" y="11" class="st10" width="110.9" height="93"/>
<rect x="351.6" y="11" class="st10" width="149.9" height="93"/>
<text transform="matrix(1 0 0 1 11.6973 23.2974)" class="st0 st1">1. Aggregate similar cells</text>
<path class="st4" d="M184,242.5L184,242.5c-4.7,0-8.5,3.8-8.5,8.5l0,0c0,4.7,3.8,8.5,8.5,8.5l0,0c4.7,0,8.5-3.8,8.5-8.5l0,0
	C192.5,246.3,188.7,242.5,184,242.5z"/>
<text transform="matrix(0.9865 0 0 1 179.29 253.1726)" class="st0 st5">TF1</text>
<g>
	<g>
		<line class="st2" x1="183.5" y1="259.5" x2="183.5" y2="280.5"/>
		<g>
			<path class="st3" d="M183.5,283.5c-0.5-1.4-1.4-3.2-2.4-4.3l2.4,0.9l2.4-0.9C184.9,280.3,184,282.1,183.5,283.5z"/>
		</g>
	</g>
</g>
<g>
	<g>
		<line class="st2" x1="189.5" y1="257.5" x2="206.6" y2="278.2"/>
		<g>
			<path class="st3" d="M208.5,280.5c-1.3-0.8-3.1-1.5-4.6-1.8l2.4-0.9l1.3-2.2C207.6,277.1,208,279.1,208.5,280.5z"/>
		</g>
	</g>
</g>
<g>
	<g>
		<line class="st2" x1="176.8" y1="245.5" x2="164" y2="243.2"/>
		<g>
			<path class="st3" d="M161,242.6c1.5-0.3,3.4-0.8,4.6-1.6l-1.3,2.2l0.4,2.5C163.9,244.6,162.3,243.4,161,242.6z"/>
		</g>
	</g>
</g>
<circle class="st2" cx="184" cy="288" r="4.5"/>
<circle class="st2" cx="209" cy="286" r="4.5"/>
<circle class="st2" cx="157" cy="243" r="4.5"/>
<path class="st4" d="M309.2,242.2L309.2,242.2c-4.7,0-8.5,3.8-8.5,8.5l0,0c0,4.7,3.8,8.5,8.5,8.5l0,0c4.7,0,8.5-3.8,8.5-8.5l0,0
	C317.7,246.1,313.8,242.2,309.2,242.2z"/>
<text transform="matrix(0.9865 0 0 1 304.459 252.9002)" class="st0 st5">TF</text>
<g>
	<g>
		<line class="st2" x1="308.7" y1="259.2" x2="308.7" y2="280.2"/>
		<g>
			<path class="st3" d="M308.7,283.2c-0.5-1.4-1.4-3.2-2.4-4.3l2.4,0.9l2.4-0.9C310.1,280,309.2,281.8,308.7,283.2z"/>
		</g>
	</g>
</g>
<g>
	<g>
		<line class="st2" x1="315.7" y1="256.7" x2="328.8" y2="272.9"/>
		<g>
			<path class="st3" d="M330.7,275.2c-1.3-0.8-3.1-1.6-4.5-1.8l2.4-0.8l1.3-2.2C329.8,271.9,330.2,273.8,330.7,275.2z"/>
		</g>
	</g>
</g>
<g>
	<g>
		<line class="st11" x1="300.7" y1="246.7" x2="287" y2="240.8"/>
		<g>
			<path class="st3" d="M278.7,237.2c4.5,0.2,10.5-0.1,14.6-1.5l-5.2,5.5l-0.5,7.6C285.7,244.9,282,240.4,278.7,237.2z"/>
		</g>
	</g>
</g>
<circle class="st2" cx="309.2" cy="287.7" r="4.5"/>
<circle class="st2" cx="333.2" cy="278.7" r="4.5"/>
<circle class="st2" cx="275.2" cy="237.7" r="4.5"/>
<path class="st12" d="M381.2,242.2L381.2,242.2c-4.7,0-8.5,3.8-8.5,8.5l0,0c0,4.7,3.8,8.5,8.5,8.5l0,0c4.7,0,8.5-3.8,8.5-8.5l0,0
	C389.7,246.1,385.8,242.2,381.2,242.2z"/>
<text transform="matrix(0.9865 0 0 1 376.459 252.9002)" class="st0 st5">TF</text>
<g>
	<g>
		<line class="st12" x1="380.7" y1="259.2" x2="380.7" y2="280.2"/>
		<g>
			<path class="st13" d="M380.7,283.2c-0.5-1.4-1.4-3.2-2.4-4.3l2.4,0.9l2.4-0.9C382.1,280,381.2,281.8,380.7,283.2z"/>
		</g>
	</g>
</g>
<g>
	<g>
		<line class="st14" x1="387.7" y1="256.7" x2="398.9" y2="270.5"/>
		<g>
			<path class="st13" d="M402.7,275.2c-2.6-1.5-6.2-3.1-9.1-3.6l4.8-1.7l2.6-4.3C400.9,268.5,401.7,272.4,402.7,275.2z"/>
		</g>
	</g>
</g>
<g>
	<g>
		<line class="st12" x1="372.7" y1="246.7" x2="353.4" y2="238.4"/>
		<g>
			<path class="st13" d="M350.7,237.2c1.5,0.1,3.5,0,4.9-0.5l-1.7,1.8l-0.1,2.5C353,239.8,351.8,238.3,350.7,237.2z"/>
		</g>
	</g>
</g>
<circle class="st12" cx="381.2" cy="287.7" r="4.5"/>
<circle class="st12" cx="405.2" cy="278.7" r="4.5"/>
<circle class="st12" cx="347.2" cy="237.7" r="4.5"/>
<path class="st15" d="M460,241.5L460,241.5c-4.7,0-8.5,3.8-8.5,8.5l0,0c0,4.7,3.8,8.5,8.5,8.5l0,0c4.7,0,8.5-3.8,8.5-8.5l0,0
	C468.5,245.3,464.7,241.5,460,241.5z"/>
<text transform="matrix(0.9865 0 0 1 455.29 252.1726)" class="st0 st5">TF</text>
<g>
	<g>
		<line class="st12" x1="466.5" y1="256" x2="479.6" y2="272.2"/>
		<g>
			<path class="st13" d="M481.5,274.5c-1.3-0.8-3.1-1.6-4.5-1.8l2.4-0.8l1.3-2.2C480.6,271.1,481,273.1,481.5,274.5z"/>
		</g>
	</g>
</g>
<g>
	<g>
		<line class="st16" x1="451.5" y1="246" x2="435" y2="238.9"/>
		<g>
			<path class="st3" d="M429.5,236.5c3,0.2,7-0.1,9.7-1l-3.5,3.7l-0.3,5C434.2,241.6,431.7,238.6,429.5,236.5z"/>
		</g>
	</g>
</g>
<circle class="st12" cx="484" cy="278" r="4.5"/>
<circle class="st2" cx="426" cy="237" r="4.5"/>
<text transform="matrix(1 0 0 1 416.9839 262.5415)" class="st0 st17">=</text>
<text transform="matrix(1 0 0 1 337.8279 262.6001)" class="st0 st17">-</text>
<path class="st4" d="M67.2,242.2L67.2,242.2c-4.7,0-8.5,3.8-8.5,8.5l0,0c0,4.7,3.8,8.5,8.5,8.5l0,0c4.7,0,8.5-3.8,8.5-8.5l0,0
	C75.7,246,71.8,242.2,67.2,242.2z"/>
<text transform="matrix(0.9865 0 0 1 62.436 252.8772)" class="st0 st5">TF</text>
<g>
	<g>
		<line class="st2" x1="66.7" y1="259.2" x2="66.7" y2="280.2"/>
		<g>
			<path class="st3" d="M66.7,283.2c-0.5-1.4-1.4-3.2-2.4-4.3l2.4,0.9l2.4-0.9C68.1,280,67.2,281.8,66.7,283.2z"/>
		</g>
	</g>
</g>
<g>
	<g>
		<line class="st2" x1="73.7" y1="256.7" x2="86.8" y2="272.9"/>
		<g>
			<path class="st3" d="M88.7,275.2c-1.3-0.8-3.1-1.6-4.5-1.8l2.4-0.8l1.3-2.2C87.8,271.8,88.2,273.8,88.7,275.2z"/>
		</g>
	</g>
</g>
<g>
	<g>
		<line class="st2" x1="58.7" y1="246.7" x2="39.4" y2="238.4"/>
		<g>
			<path class="st3" d="M36.7,237.2c1.5,0.1,3.5,0,4.9-0.5l-1.7,1.8l-0.2,2.5C39,239.8,37.7,238.3,36.7,237.2z"/>
		</g>
	</g>
</g>
<circle class="st2" cx="67.2" cy="287.7" r="4.5"/>
<circle class="st2" cx="91.2" cy="278.7" r="4.5"/>
<circle class="st2" cx="33" cy="236" r="4.5"/>
<path class="st4" d="M226.1,242.2L226.1,242.2c-4.7,0-8.5,3.8-8.5,8.5l0,0c0,4.7,3.8,8.5,8.5,8.5l0,0c4.7,0,8.5-3.8,8.5-8.5l0,0
	C234.6,246,230.8,242.2,226.1,242.2z"/>
<text transform="matrix(0.9865 0 0 1 221.4365 252.8772)" class="st0 st5">TF2</text>
<g>
	<g>
		<line class="st2" x1="218.5" y1="253.5" x2="185.8" y2="281.5"/>
		<g>
			<path class="st3" d="M183.5,283.5c0.7-1.3,1.5-3.1,1.7-4.6l0.9,2.4l2.2,1.2C186.8,282.5,184.9,283,183.5,283.5z"/>
		</g>
	</g>
</g>
<g>
	<g>
		<line class="st2" x1="223.5" y1="258.5" x2="210.1" y2="279"/>
		<g>
			<path class="st3" d="M208.5,281.5c0.3-1.5,0.5-3.4,0.3-4.9l1.5,2l2.5,0.6C211.4,279.6,209.7,280.6,208.5,281.5z"/>
		</g>
	</g>
</g>
<g>
	<g>
		<line class="st2" x1="234.6" y1="251.7" x2="248.6" y2="269.1"/>
		<g>
			<path class="st3" d="M250.5,271.5c-1.3-0.8-3.1-1.6-4.5-1.9l2.4-0.8l1.3-2.2C249.6,268.1,250,270.1,250.5,271.5z"/>
		</g>
	</g>
</g>
<circle class="st2" cx="253" cy="274" r="4.5"/>
<rect x="147.5" y="205" class="st10" width="115" height="93"/>
<rect x="265.9" y="205" class="st10" width="235.6" height="93"/>
<rect x="10.4" y="205" class="st10" width="133.1" height="93"/>
<text transform="matrix(1 0 0 1 328.1778 217.3745)" class="st0 st1">9. Perform differential network</text>
<text transform="matrix(1 0 0 1 292.8442 232.6812)" class="st0 st5">cell state A</text>
<text transform="matrix(1 0 0 1 361.4476 231.1724)" class="st0 st5">cell state B</text>
<text transform="matrix(1 0 0 1 154.4452 217.3745)" class="st0 st1">8. Find interaction partners</text>
<text transform="matrix(1 0 0 1 16.4353 217.3745)" class="st0 st1">7. Perform Geneset enrichment</text>
<g>
	<g>
		<g>
			<g>
				<line class="st18" x1="191.5" y1="182.4" x2="191.5" y2="137.7"/>
				<g>
					<path d="M191.5,134.7c0.5,1.4,1.4,3.2,2.4,4.3l-2.4-0.9l-2.4,0.9C190.1,137.9,191,136.1,191.5,134.7z"/>
				</g>
			</g>
		</g>
		<g>
			<g>
				<line class="st18" x1="191.5" y1="182.4" x2="236.5" y2="182.4"/>
				<g>
					<path d="M239.5,182.4c-1.4,0.5-3.2,1.4-4.3,2.4l0.9-2.4l-0.9-2.4C236.3,181,238.1,181.9,239.5,182.4z"/>
				</g>
			</g>
		</g>
	</g>
	<g>
		<g>
			<path class="st3" d="M202.9,147.9c1.9,0,1.9-3,0-3S200.9,147.9,202.9,147.9L202.9,147.9z"/>
		</g>
	</g>
	<g>
		<g>
			<path class="st3" d="M198.1,157.3c1.9,0,1.9-3,0-3C196.2,154.3,196.2,157.3,198.1,157.3L198.1,157.3z"/>
		</g>
	</g>
	<g>
		<g>
			<path class="st3" d="M205.4,164.7c1.9,0,1.9-3,0-3C203.4,161.7,203.4,164.7,205.4,164.7L205.4,164.7z"/>
		</g>
	</g>
	<g>
		<g>
			<path class="st3" d="M212.6,174.6c1.9,0,1.9-3,0-3C210.7,171.6,210.7,174.6,212.6,174.6L212.6,174.6z"/>
		</g>
	</g>
	<g>
		<g>
			<path class="st3" d="M216.5,168.2c1.9,0,1.9-3,0-3C214.6,165.2,214.6,168.2,216.5,168.2L216.5,168.2z"/>
		</g>
	</g>
	<g>
		<g>
			<path class="st3" d="M230.5,161.7c1.9,0,1.9-3,0-3C228.5,158.7,228.5,161.7,230.5,161.7L230.5,161.7z"/>
		</g>
	</g>
	<g>
		<g>
			<path class="st3" d="M227.1,171.6c1.9,0,1.9-3,0-3S225.2,171.6,227.1,171.6L227.1,171.6z"/>
		</g>
	</g>
	<g>
		<g>
			<path class="st3" d="M232.7,149.4c1.9,0,1.9-3,0-3S230.8,149.4,232.7,149.4L232.7,149.4z"/>
		</g>
	</g>
	<g>
		<g>
			<path class="st3" d="M222.7,164.9c1.9,0,1.9-3,0-3C220.7,161.9,220.7,164.9,222.7,164.9L222.7,164.9z"/>
		</g>
	</g>
	<g>
		<g>
			<path class="st3" d="M228.9,151.9c1.9,0,1.9-3,0-3C227,148.9,227,151.9,228.9,151.9L228.9,151.9z"/>
		</g>
	</g>
	<path class="st18" d="M198.6,139.3c0,18.5,7.5,33.6,16.8,33.6s16.8-15,16.8-33.6"/>
</g>
<g>
	<g>
		<g>
			<g>
				<line class="st18" x1="36.4" y1="182" x2="36.4" y2="137.3"/>
				<g>
					<path d="M36.4,134.3c0.5,1.4,1.4,3.2,2.4,4.3l-2.4-0.9l-2.4,0.9C35,137.5,35.9,135.7,36.4,134.3z"/>
				</g>
			</g>
		</g>
		<g>
			<g>
				<line class="st18" x1="36.4" y1="182" x2="81.4" y2="182"/>
				<g>
					<path d="M84.4,182c-1.4,0.5-3.2,1.4-4.3,2.4L81,182l-0.9-2.4C81.2,180.6,83,181.5,84.4,182z"/>
				</g>
			</g>
		</g>
	</g>
	<g>
		<g>
			<path class="st3" d="M45.2,170.9c1.9,0,1.9-3,0-3S43.3,170.9,45.2,170.9L45.2,170.9z"/>
		</g>
	</g>
	<g>
		<g>
			<path class="st3" d="M51.7,174.7c1.9,0,1.9-3,0-3S49.8,174.7,51.7,174.7L51.7,174.7z"/>
		</g>
	</g>
	<g>
		<g>
			<path class="st3" d="M50.6,169.7c1.9,0,1.9-3,0-3S48.7,169.7,50.6,169.7L50.6,169.7z"/>
		</g>
	</g>
	<g>
		<g>
			<path class="st3" d="M45.6,165.3c1.9,0,1.9-3,0-3S43.6,165.3,45.6,165.3L45.6,165.3z"/>
		</g>
	</g>
	<g>
		<g>
			<path class="st3" d="M55.6,165.3c1.9,0,1.9-3,0-3S53.7,165.3,55.6,165.3L55.6,165.3z"/>
		</g>
	</g>
	<g>
		<g>
			<path class="st3" d="M70.7,161.1c1.9,0,1.9-3,0-3S68.8,161.1,70.7,161.1L70.7,161.1z"/>
		</g>
	</g>
	<g>
		<g>
			<path class="st3" d="M70.1,167.3c1.9,0,1.9-3,0-3S68.2,167.3,70.1,167.3L70.1,167.3z"/>
		</g>
	</g>
	<g>
		<g>
			<path class="st3" d="M70.1,155.9c1.9,0,1.9-3,0-3S68.2,155.9,70.1,155.9L70.1,155.9z"/>
		</g>
	</g>
	<g>
		<g>
			<path class="st3" d="M70.1,149c1.9,0,1.9-3,0-3S68.2,149,70.1,149L70.1,149z"/>
		</g>
	</g>
	<g>
		<g>
			<path class="st3" d="M71.8,143.6c1.9,0,1.9-3,0-3S69.9,143.6,71.8,143.6L71.8,143.6z"/>
		</g>
	</g>
	<g>
		<g>
			<path class="st3" d="M74,156.4c1.9,0,1.9-3,0-3S72.1,156.4,74,156.4L74,156.4z"/>
		</g>
	</g>
	<line class="st18" x1="42" y1="168.8" x2="60" y2="168.8"/>
	<line class="st18" x1="63" y1="154.6" x2="81" y2="154.6"/>
</g>
<g>
	<g>
		<path class="st3" d="M147.8,141.4c1.9,0,1.9-3,0-3S145.8,141.4,147.8,141.4L147.8,141.4z"/>
	</g>
</g>
<g>
	<g>
		<g>
			<g>
				<line class="st18" x1="109.6" y1="181.8" x2="109.6" y2="137.1"/>
				<g>
					<path d="M109.6,134.1c0.5,1.4,1.4,3.2,2.4,4.3l-2.4-0.9l-2.4,0.9C108.2,137.2,109.1,135.5,109.6,134.1z"/>
				</g>
			</g>
		</g>
		<g>
			<g>
				<line class="st18" x1="109.6" y1="181.8" x2="154.6" y2="181.8"/>
				<g>
					<path d="M157.6,181.8c-1.4,0.5-3.2,1.4-4.3,2.4l0.9-2.4l-0.9-2.4C154.4,180.3,156.2,181.2,157.6,181.8z"/>
				</g>
			</g>
		</g>
	</g>
	<g>
		<g>
			<path class="st3" d="M132.7,142.7c1.9,0,1.9-3,0-3S130.8,142.7,132.7,142.7L132.7,142.7z"/>
		</g>
	</g>
	<g>
		<g>
			<path class="st3" d="M123.8,174.7c1.9,0,1.9-3,0-3S121.8,174.7,123.8,174.7L123.8,174.7z"/>
		</g>
	</g>
	<g>
		<g>
			<path class="st3" d="M129.1,170.8c1.9,0,1.9-3,0-3C127.1,167.8,127.1,170.8,129.1,170.8L129.1,170.8z"/>
		</g>
	</g>
	<g>
		<g>
			<path class="st3" d="M134.4,159.9c1.9,0,1.9-3,0-3C132.4,156.9,132.4,159.9,134.4,159.9L134.4,159.9z"/>
		</g>
	</g>
	<g>
		<g>
			<path class="st3" d="M143.3,150c1.9,0,1.9-3,0-3S141.4,150,143.3,150L143.3,150z"/>
		</g>
	</g>
	<g>
		<g>
			<path class="st3" d="M124.9,164.8c1.9,0,1.9-3,0-3C122.9,161.8,122.9,164.8,124.9,164.8L124.9,164.8z"/>
		</g>
	</g>
	<g>
		<g>
			<path class="st3" d="M130.4,152.5c1.9,0,1.9-3,0-3S128.5,152.5,130.4,152.5L130.4,152.5z"/>
		</g>
	</g>
	<line class="st18" x1="116.6" y1="174.7" x2="145.6" y2="136.7"/>
</g>
<text transform="matrix(1 0 0 1 189.2852 129.4258)" class="st0 st5">Mutual information</text>
<text transform="matrix(1 0 0 1 118.3742 129.7304)" class="st0 st5">Correlation</text>
<rect x="9.6" y="109.5" class="st10" width="284.9" height="93"/>
<text transform="matrix(1 0 0 1 46.4996 128.4282)" class="st0 st5">Wilcoxon</text>
<text transform="matrix(1 0 0 1 112.6633 118.9095)" class="st0 st1">5. Add weights</text>
<text transform="matrix(1 0 0 1 125.1689 191.4487)" class="st0 st5">TF</text>
<text transform="matrix(1 0 0 1 212.7032 191.4489)" class="st0 st5">TF</text>
<text transform="matrix(0 -1 1 0 188.1951 165.0042)" class="st0 st5">target</text>
<text transform="matrix(0 -1 1 0 105.1951 165.0042)" class="st0 st5">target</text>
<text transform="matrix(1 0 0 1 45.2019 190.7303)" class="st0 st5">OFF       ON</text>
<path class="st4" d="M377.1,146.1L377.1,146.1c-4.7,0-8.5,3.8-8.5,8.5l0,0c0,4.7,3.8,8.5,8.5,8.5l0,0c4.7,0,8.5-3.8,8.5-8.5l0,0
	C385.6,149.9,381.8,146.1,377.1,146.1z"/>
<text transform="matrix(0.9865 0 0 1 372.3662 156.784)" class="st0 st5">TF</text>
<g>
	<g>
		<line class="st2" x1="376.6" y1="163.1" x2="376.6" y2="184.1"/>
		<g>
			<path class="st3" d="M376.6,187.1c-0.5-1.4-1.4-3.2-2.4-4.3l2.4,0.9l2.4-0.9C378,183.9,377.1,185.7,376.6,187.1z"/>
		</g>
	</g>
</g>
<g>
	<g>
		<line class="st2" x1="383.6" y1="160.6" x2="396.7" y2="176.8"/>
		<g>
			<path class="st3" d="M398.6,179.1c-1.3-0.8-3.1-1.6-4.5-1.8l2.4-0.8l1.3-2.2C397.7,175.7,398.1,177.7,398.6,179.1z"/>
		</g>
	</g>
</g>
<g>
	<g>
		<line class="st2" x1="368.6" y1="150.6" x2="349.4" y2="142.3"/>
		<g>
			<path class="st3" d="M346.6,141.1c1.5,0.1,3.5-0.1,4.9-0.5l-1.7,1.8l-0.1,2.5C348.9,143.7,347.7,142.2,346.6,141.1z"/>
		</g>
	</g>
</g>
<circle class="st2" cx="377.1" cy="191.6" r="4.5"/>
<circle class="st2" cx="401.1" cy="182.6" r="4.5"/>
<circle class="st2" cx="342.9" cy="139.9" r="4.5"/>
<rect x="297.5" y="108.9" class="st10" width="140" height="93"/>
<text transform="matrix(1 0 0 1 326.3657 119.9099)" class="st0 st1">6. Calculate TF activity</text>
<path class="st18" d="M34,265h62c6.6,0,12,5.4,12,12v5c0,6.6-5.4,12-12,12H34c-6.6,0-12-5.4-12-12v-5C22,270.4,27.4,265,34,265z"/>
<text transform="matrix(1 0 0 1 28.3665 273.8001)" class="st0 st5">Gene</text>
<text transform="matrix(1 0 0 1 28.3665 281.0001)" class="st0 st5">program</text>
<g>
	<path class="st19" d="M396.5,91.5h-31c-6.6,0-12-5.4-12-12v-31c0-6.6,5.4-12,12-12h31c6.6,0,12,5.4,12,12v31
		C408.5,86.1,403.1,91.5,396.5,91.5z"/>
</g>
<path class="st20" d="M484.5,91.5h-62c-6.6,0-12-5.4-12-12v-31c0-6.6,5.4-12,12-12h62c6.6,0,12,5.4,12,12v31
	C496.5,86.1,491.1,91.5,484.5,91.5z"/>
<text transform="matrix(0 -1 1 0 31.5596 164.0042)" class="st0 st5">target</text>
</svg>
